<?xml version="1.0" encoding="utf-8"?>
<!-- Generator: Adobe Illustrator 28.1.0, SVG Export Plug-In . SVG Version: 6.00 Build 0)  -->
<svg version="1.1" id="Layer_2_00000024711102656554276290000006926475895239384216_"
	 xmlns="http://www.w3.org/2000/svg" xmlns:xlink="http://www.w3.org/1999/xlink" x="0px" y="0px" viewBox="0 0 400.3 114"
	 style="enable-background:new 0 0 400.3 114;" xml:space="preserve">
<style type="text/css">
	.st0{fill:#355070;}
	.st1{fill:#54565A;}
	.st2{fill:#009845;}
</style>
<path class="st0" d="M60.8,5.7h-6.4v39.5h6.1V50H43v-4.8h5.8V13.9h-0.3L31.9,47.6h-3l-16.8-34h-0.3v31.6h5.9V50H0.2v-4.8h6.2V5.7H0
	V0.9h11.3l19.2,38.6h0.3L49.4,0.9h11.4L60.8,5.7L60.8,5.7z"/>
<path class="st0" d="M69.2,19c1.8-1.2,3.6-2,5.6-2.5s4.1-0.8,6.3-0.8c8,0,12.1,3.8,12.1,11.3v16c0,2.4,1,3.6,2.9,3.6
	c0.9,0,1.6-0.2,2.3-0.5l0.1,3.5c-1.4,0.8-2.8,1.1-4.4,1.1c-4,0-6-2.3-6.1-6.8v-0.2c-1.1,1.8-2.6,3.4-4.5,4.8c-1.9,1.4-4.3,2.1-7,2.1
	c-2.2,0-4.5-0.7-6.8-2c-2.3-1.4-3.4-3.8-3.4-7.4c0-4.2,1.7-7,5-8.4s6.9-2,10.7-2c1,0,2,0,3.1,0.1c1,0,2,0.1,2.9,0.2v-3
	c0-2.4-0.5-4.4-1.6-5.9c-1-1.5-3.1-2.3-6.1-2.3c-2.5,0-4.7,0.5-6.5,1.4l-1.3,5.8L68,26.8L69.2,19L69.2,19z M87.8,37.4v-2.6
	c-1,0-2-0.1-3-0.2s-2.2-0.2-3.3-0.2c-2.5,0-4.8,0.4-6.9,1.2s-3.1,2.5-3.1,5.1c0,2.2,0.7,3.7,2.1,4.5s2.8,1.2,4.2,1.2
	c2.3,0,4.5-0.8,6.6-2.4C86.5,42.4,87.6,40.2,87.8,37.4L87.8,37.4z"/>
<path class="st0" d="M129.9,40.3c0,3.3-1.4,5.9-4.1,7.7c-2.8,1.9-6.2,2.8-10.2,2.8c-2.4,0-4.7-0.3-7.1-1s-4.3-1.4-5.7-2.4l1.1-7.7
	l4.2,0.5l-0.2,4.5c2.3,1.1,4.8,1.7,7.5,1.7c2.4,0,4.5-0.5,6.3-1.4s2.8-2.4,2.8-4.3s-0.7-3.2-2.1-3.9s-3.2-1.3-5.3-1.7
	c-2.1-0.3-4.2-0.8-6.3-1.3c-2.1-0.5-3.9-1.4-5.3-2.6c-1.4-1.2-2.1-3.2-2.1-5.8c0-3.6,1.3-6.1,3.9-7.6s5.5-2.2,8.6-2.2
	c2.3,0,4.5,0.3,6.6,0.9s3.8,1.3,5.2,2.2l0.8,7.9l-4.4,0.5l-0.8-5.4c-2.1-1.1-4.4-1.7-6.9-1.7c-2.1,0-3.9,0.4-5.2,1.2
	c-1.4,0.8-2.1,2.1-2.1,3.8s0.7,3,2.1,3.8s3.2,1.3,5.2,1.6s4.1,0.8,6.2,1.2c2.1,0.5,3.8,1.4,5.2,2.7
	C129.1,35.7,129.8,37.6,129.9,40.3L129.9,40.3z"/>
<path class="st0" d="M160.5,41c-0.9,6.6-4.5,9.8-10.7,9.8c-3.4,0-6-1-7.8-2.9s-2.7-4.5-2.7-7.8V20.6h-5.4v-4.2h5.4V5.6h5.3v10.8
	h13.2v4.2h-13.2v18.9c0,2,0.4,3.7,1.3,4.9c0.9,1.2,2.3,1.9,4.4,1.9c1.3,0,2.5-0.4,3.7-1.2c1.1-0.8,2-2.6,2.5-5.3L160.5,41L160.5,41z
	"/>
<path class="st0" d="M193.9,40.4c-0.4,2.9-1.9,5.3-4.3,7.4c-2.4,2-5.7,3.1-9.9,3.1c-4.8,0-8.6-1.5-11.5-4.5s-4.4-7.2-4.4-12.7
	s1.4-9.6,4.2-13s6.5-5.1,11.3-5.1s8.2,1.5,10.6,4.4c2.4,2.9,3.7,6.4,3.7,10.4c0,1.3-0.1,2.7-0.4,4h-23.7c0.3,7.9,3.9,11.8,10.7,11.8
	c2.7,0,4.8-0.6,6.3-1.9c1.5-1.3,2.5-2.9,3-5L193.9,40.4L193.9,40.4z M187.9,30.5c0.2-2.5-0.3-4.9-1.8-7.1s-3.8-3.3-7.1-3.3
	s-5.4,1-6.9,3.1s-2.4,4.5-2.7,7.4L187.9,30.5L187.9,30.5z"/>
<path class="st0" d="M218,15.8c2.4,0,4.3,0.6,5.8,1.7l1.3,8.5l-4.3,0.5l-1.3-5.8c-0.9-0.3-1.7-0.5-2.6-0.5c-2,0-3.6,0.8-4.9,2.5
	c-1.3,1.6-2,3.8-2,6.4v16.6h7.8V50h-19v-4.3h5.9v-25h-6.1v-4.3h11.1v6.1c0.7-1.9,1.7-3.5,3.2-4.7C214.4,16.4,216.1,15.8,218,15.8
	L218,15.8z"/>
<path class="st0" d="M258.6,40.3c0,3.3-1.4,5.9-4.1,7.7s-6.1,2.8-10.2,2.8c-2.4,0-4.7-0.3-7.1-1s-4.3-1.4-5.7-2.4l1.1-7.7l4.2,0.5
	l-0.2,4.5c2.3,1.1,4.8,1.7,7.5,1.7c2.4,0,4.5-0.5,6.3-1.4s2.8-2.4,2.8-4.3s-0.7-3.2-2.1-3.9c-1.4-0.8-3.2-1.3-5.3-1.7
	c-2.1-0.3-4.2-0.8-6.3-1.3s-3.9-1.4-5.3-2.6c-1.4-1.2-2.1-3.2-2.1-5.8c0-3.6,1.3-6.1,3.9-7.6c2.6-1.5,5.5-2.2,8.6-2.2
	c2.3,0,4.5,0.3,6.6,0.9s3.8,1.3,5.2,2.2l0.8,7.9l-4.4,0.5l-0.8-5.4c-2.1-1.1-4.4-1.7-6.9-1.7c-2.1,0-3.9,0.4-5.2,1.2
	c-1.4,0.8-2.1,2.1-2.1,3.8s0.7,3,2.1,3.8c1.4,0.7,3.2,1.3,5.2,1.6c2.1,0.3,4.1,0.8,6.2,1.2c2.1,0.5,3.8,1.4,5.2,2.7
	C257.8,35.7,258.6,37.6,258.6,40.3L258.6,40.3z"/>
<path class="st0" d="M32.9,94.7c0,4.7-1.6,8.2-5,10.7c-3.3,2.4-7.4,3.7-12.4,3.7c-6.8,0-12-1.3-15.6-4l1-9.6l4.5,0.4L5.2,102
	c1.6,0.8,3.3,1.4,4.9,1.7c1.6,0.3,3.4,0.4,5.1,0.4c3.2,0,5.9-0.7,8.2-2.1s3.5-3.7,3.5-7c0-3.7-1.3-6.1-3.8-7.2s-5.3-2-8.3-2.7
	c-2.3-0.5-4.6-1.1-6.8-1.9s-4.1-2-5.6-3.7s-2.2-4.1-2.2-7.3c0-4.6,1.5-8,4.6-10.2c3.2-1.9,6.8-3,11-3c2.7,0,5.4,0.4,8.1,1.1
	c2.7,0.8,4.9,1.7,6.4,2.9l0.5,9.6L26.3,73l-0.8-7.2c-1.5-0.8-3.1-1.3-4.7-1.6c-1.6-0.3-3.1-0.4-4.5-0.4c-3,0-5.5,0.7-7.4,2
	c-1.9,1.4-2.8,3.3-2.8,5.9c0,3,1.1,5.1,3.4,6.1c2.2,1,4.7,1.9,7.5,2.5c2.2,0.5,4.5,1.1,7,1.9s4.6,2.1,6.3,4
	C32,88.2,32.9,91,32.9,94.7L32.9,94.7z"/>
<path class="st0" d="M76.9,108.2H65.7V102c-1.1,2.1-2.6,3.8-4.6,5.1s-4.3,1.9-7,1.9c-3.2,0-6-1-8.2-3s-3.3-5.2-3.3-9.7v-17h-5.8V75
	h11v19.8c0,3.6,0.8,6.1,2.2,7.5c1.5,1.4,3.4,2.2,5.8,2.2c2.8,0,5.2-1.1,7-3.2s2.8-4.4,2.9-6.8V79.3h-6.9v-4.2H71v29h6L76.9,108.2
	L76.9,108.2z"/>
<path class="st0" d="M141.7,108.2h-15.9V104h4.8V88.5c0-3.6-0.7-6.1-2.1-7.6c-1.4-1.5-3.2-2.2-5.4-2.2c-3,0-5.4,1.1-7,3.4
	s-2.5,4.5-2.5,6.6V104h5.8v4.2h-15.8V104h4.8V88.5c0-3.6-0.7-6.2-2.1-7.6s-3.2-2.2-5.3-2.2c-3.1,0-5.4,1.1-7.1,3.3
	c-1.6,2.2-2.5,4.4-2.6,6.5V104h6.1v4.2H80.2V104H86V79.3h-5.9V75h11.1v6.2c1.1-2,2.6-3.6,4.4-4.9s4.1-1.9,6.7-1.9s4.8,0.7,6.8,1.9
	s3.2,3.3,3.9,6c1-2.3,2.5-4.2,4.4-5.8c2-1.5,4.4-2.2,7.3-2.2c3.2,0,5.8,1,7.9,3s3.2,5.2,3.2,9.6v17h5.8L141.7,108.2L141.7,108.2z"/>
<path class="st0" d="M206.1,108.2h-15.9V104h4.9V88.5c0-3.6-0.7-6.1-2.1-7.6c-1.4-1.5-3.2-2.2-5.4-2.2c-3,0-5.4,1.1-7,3.4
	s-2.5,4.5-2.5,6.6V104h5.8v4.2h-15.8V104h4.8V88.5c0-3.6-0.7-6.2-2.1-7.6s-3.2-2.2-5.3-2.2c-3.1,0-5.4,1.1-7.1,3.3
	c-1.6,2.2-2.5,4.4-2.6,6.5V104h6.1v4.2h-17.2V104h5.8V79.3h-5.9V75h11.1v6.2c1.1-2,2.6-3.6,4.4-4.9c1.8-1.3,4.1-1.9,6.7-1.9
	s4.8,0.7,6.8,1.9s3.2,3.3,3.9,6c1-2.3,2.5-4.2,4.4-5.8c2-1.5,4.4-2.2,7.3-2.2c3.2,0,5.8,1,7.9,3c2.1,2,3.2,5.2,3.2,9.6v17h5.8
	L206.1,108.2L206.1,108.2z"/>
<path class="st0" d="M226.2,108.2h-16.9V104h5.8V79.3h-6V75h11.2v29h5.8L226.2,108.2L226.2,108.2z M214.6,66.4v-6.8h5.7v6.8H214.6z"
	/>
<path class="st0" d="M255,99.3c-0.9,6.5-4.4,9.7-10.5,9.7c-3.3,0-5.9-0.9-7.6-2.8c-1.8-1.9-2.6-4.4-2.6-7.7V79.2h-5.4V75h5.4V64.3
	h5.2V75h13v4.2h-13v18.6c0,2,0.4,3.6,1.3,4.8c0.9,1.2,2.3,1.8,4.3,1.8c1.3,0,2.5-0.4,3.6-1.2c1.1-0.8,1.9-2.5,2.4-5.2L255,99.3
	L255,99.3z"/>
<path class="st0" d="M293.1,30.9c0.6,0,1.1,0.1,1.6,0.2s0.9,0.4,1.3,0.7l0.5,2.9l-1.6,0.2l-0.5-2.2c-0.4-0.2-0.9-0.2-1.4-0.2
	c-1.5,0-2.2,1-2.2,3V38h3.2v1.6h-3.2V49h2.9v1.6h-7V49h2.2v-9.4h-1.8V38h1.8v-2.3c0-1.5,0.4-2.6,1.3-3.5
	C290.9,31.3,291.9,30.8,293.1,30.9L293.1,30.9z"/>
<path class="st0" d="M308,44.3c0,1.9-0.6,3.5-1.7,4.7s-2.7,1.9-4.6,1.9s-3.4-0.6-4.5-1.8s-1.6-2.8-1.6-4.7s0.5-3.4,1.6-4.7
	s2.6-2,4.6-2s3.6,0.7,4.6,1.9C307.5,40.9,308,42.5,308,44.3L308,44.3z M306,44.2c0-1.4-0.4-2.6-1.1-3.5s-1.8-1.3-3.1-1.3
	s-2.3,0.5-3,1.4s-1.1,2.1-1.1,3.5s0.4,2.5,1,3.5c0.7,0.9,1.7,1.4,3,1.4s2.4-0.5,3.1-1.4S305.9,45.6,306,44.2L306,44.2z"/>
<path class="st0" d="M317.1,37.8c0.9,0,1.6,0.2,2.1,0.7l0.5,3.2l-1.6,0.2l-0.5-2.2c-0.3-0.1-0.6-0.2-1-0.2c-0.7,0-1.4,0.3-1.8,0.9
	c-0.5,0.6-0.7,1.4-0.7,2.4V49h2.9v1.6h-7.1V49h2.2v-9.3h-2.3V38h4.1v2.3c0.2-0.7,0.6-1.3,1.2-1.8S316.4,37.8,317.1,37.8L317.1,37.8z
	"/>
<rect x="269.9" class="st0" width="3" height="114"/>
<g>
	<path class="st1" d="M345.5,63.7h-4.6v44.1h4.6V63.7z M358,77h-4.6v30.8h4.6V77z M358.8,67.3c0.3-1.7-0.9-3.3-2.6-3.6
		c-1.7-0.3-3.3,0.9-3.6,2.6l0,0c-0.3,1.7,0.9,3.3,2.6,3.6C357,70.2,358.6,69,358.8,67.3L358.8,67.3L358.8,67.3z M321.1,100.2
		c-3.3,2.6-7.3,4-11.4,4c-10.2,0-18.4-8.2-18.4-18.4c0-4.4,1.5-8.4,4.1-11.5l-3.4-3.4c-3.5,4.2-5.5,9.5-5.5,14.9
		c0,12.8,10.4,23.2,23.2,23.2c5.6,0,10.8-2,14.8-5.3C324.5,103.6,321.1,100.2,321.1,100.2z"/>
	<path class="st2" d="M328.3,107.8h6.4l-6.9-7.5c3.3-4.1,5.1-9.2,5.1-14.5c0-12.8-10.4-23.2-23.2-23.2c-6.8,0-13.3,3-17.7,8.2
		l3.4,3.4c3.5-4.3,8.8-6.9,14.3-6.9c10.2,0,18.4,8.2,18.4,18.4c0,5.8-2.7,11.1-7,14.4l3.2,3.2l0.1,0.1l0,0L328.3,107.8z"/>
	<path class="st1" d="M390.3,77h-6.4l-13.3,11.6V63.7H366v44.1h4.6V93.5l13.6,14.2h6.4l-16.2-16.5L390.3,77L390.3,77z M396.9,105.6
		v2.2h-0.4v-1.5l-0.7,1.5h-0.2l-0.7-1.5v1.5h-0.4v-2.2h0.5l0.7,1.6l0.7-1.6H396.9z M394.3,105.6v0.3h-0.7v1.9h-0.4v-1.9h-0.7v-0.3
		H394.3z"/>
</g>
</svg>
